<?xml version="1.0" encoding="UTF-8" standalone="no"?>
<!-- Created with Inkscape (http://www.inkscape.org/) -->

<svg
   width="135.68776mm"
   height="135.68776mm"
   viewBox="0 0 135.68776 135.68776"
   version="1.1"
   id="svg1"
   xml:space="preserve"
   xmlns="http://www.w3.org/2000/svg"
   xmlns:svg="http://www.w3.org/2000/svg"><defs
     id="defs1" /><g
     id="layer1"
     transform="translate(-33.677895,-44.415775)"><rect
       style="fill:#ffffff;stroke-width:0.264583"
       id="rect1"
       width="135.68776"
       height="135.68776"
       x="33.677895"
       y="44.415775" /><path
       style="font-weight:900;font-size:38.8294px;font-family:Montserrat;-inkscape-font-specification:'Montserrat Heavy';letter-spacing:16.1789px;stroke-width:0.273054"
       d="m 67.87317,117.7413 -0.340766,-7.09874 6.920198,-7.97578 h 6.736715 l -7.759014,8.93508 -3.433891,3.67271 z m -5.530921,4.11123 v -19.18575 h 6.081389 v 19.18575 z m 12.057928,0 -5.399855,-7.45503 4.010572,-4.44015 8.545404,11.89518 z m 30.817603,-19.18457 h 6.18624 v 19.1834 h -6.18624 z m -5.714419,19.1834 h -6.186242 v -19.1834 h 6.186242 z m 6.133829,-7.07045 h -6.553229 v -5.31655 h 6.553229 z m 26.51871,7.07265 c -1.53781,0 -3.02324,-0.17472 -4.45619,-0.52426 -1.43296,-0.34949 -2.61254,-0.80385 -3.53873,-1.36307 l 1.99218,-4.50859 c 0.87375,0.50677 1.8436,0.91742 2.9096,1.23196 1.08347,0.29709 2.13199,0.44563 3.14558,0.44563 0.59415,0 1.05723,-0.035 1.38928,-0.10483 0.34951,-0.0874 0.60291,-0.201 0.76018,-0.3408 0.15727,-0.15726 0.23593,-0.34074 0.23593,-0.55043 0,-0.33204 -0.18351,-0.59418 -0.55048,-0.78638 -0.36699,-0.19227 -0.85631,-0.34951 -1.46794,-0.47185 -0.59416,-0.13981 -1.24946,-0.2796 -1.96597,-0.4194 -0.71651,-0.15727 -1.4417,-0.35825 -2.17564,-0.60289 -0.71651,-0.24465 -1.38057,-0.56796 -1.99221,-0.96992 -0.59414,-0.40189 -1.07473,-0.92613 -1.4417,-1.57274 -0.36698,-0.66406 -0.55048,-1.48538 -0.55048,-2.46399 0,-1.13595 0.31457,-2.16695 0.94368,-3.09316 0.64657,-0.94365 1.59899,-1.69509 2.85719,-2.25429 1.27569,-0.55921 2.8572,-0.83881 4.74456,-0.83881 1.24071,0 2.46398,0.13105 3.66977,0.3932 1.20579,0.26211 2.28927,0.66405 3.25039,1.20576 l -1.86108,4.48243 c -0.90872,-0.45436 -1.7912,-0.79516 -2.6475,-1.02233 -0.83881,-0.22718 -1.66016,-0.34074 -2.46405,-0.34074 -0.59414,0 -1.06598,0.0524 -1.41547,0.15729 -0.34949,0.10482 -0.6029,0.24464 -0.76019,0.41937 -0.13979,0.17478 -0.20969,0.36699 -0.20969,0.57673 0,0.31455 0.18349,0.56792 0.55046,0.76016 0.36701,0.17473 0.84755,0.32326 1.44168,0.4456 0.61165,0.12234 1.27574,0.25337 1.9922,0.3932 0.73399,0.13981 1.45918,0.33202 2.1757,0.57668 0.71647,0.24467 1.37182,0.56796 1.96597,0.96987 0.61163,0.40194 1.10092,0.92619 1.46789,1.5728 0.36702,0.64656 0.55048,1.45042 0.55048,2.41158 0,1.11841 -0.3233,2.14942 -0.96986,3.09312 -0.62914,0.92619 -1.57276,1.67762 -2.83101,2.25429 -1.2582,0.55923 -2.83969,0.83881 -4.74453,0.83881 z"
       id="text1"
       aria-label="KHS" /></g></svg>
